<svg width="644" height="48" viewBox="0 0 644 48" fill="none" xmlns="http://www.w3.org/2000/svg">
<path d="M521.89 31.8028V21.4824C521.89 21.0309 521.979 20.5838 522.152 20.1667C522.325 19.7496 522.578 19.3706 522.897 19.0514C523.217 18.7322 523.596 18.479 524.013 18.3063C524.43 18.1336 524.877 18.0448 525.329 18.045H528.373C529.282 18.0468 530.153 18.4094 530.796 19.0531C531.438 19.6968 531.799 20.569 531.799 21.4783V23.6749C531.799 24.5868 531.437 25.4614 530.792 26.1063C530.147 26.7511 529.272 27.1134 528.36 27.1134H524.055" stroke="white" stroke-width="0.750585" stroke-linecap="round" stroke-linejoin="round"/>
<path d="M532.653 18.0429H533.972C534.346 18.0429 534.705 18.1916 534.97 18.4563C535.235 18.721 535.383 19.0799 535.383 19.4542V27.1651" stroke="white" stroke-width="0.750585" stroke-linecap="round" stroke-linejoin="round"/>
<path d="M535.098 16.8487L534.5 16.2491C534.464 16.2138 534.436 16.1718 534.417 16.1256C534.398 16.0793 534.388 16.0298 534.388 15.9797C534.388 15.9297 534.398 15.8801 534.417 15.8339C534.436 15.7877 534.464 15.7457 534.5 15.7104L535.098 15.1118C535.134 15.0763 535.176 15.0482 535.222 15.029C535.268 15.0099 535.318 15 535.368 15C535.418 15 535.467 15.0099 535.513 15.029C535.56 15.0482 535.602 15.0763 535.637 15.1118L536.237 15.7104C536.272 15.7457 536.3 15.7877 536.319 15.8339C536.338 15.8801 536.348 15.9297 536.348 15.9797C536.348 16.0298 536.338 16.0793 536.319 16.1256C536.3 16.1718 536.272 16.2138 536.237 16.2491L535.637 16.8487C535.602 16.8842 535.56 16.9123 535.513 16.9315C535.467 16.9506 535.418 16.9605 535.368 16.9605C535.318 16.9605 535.268 16.9506 535.222 16.9315C535.176 16.9123 535.134 16.8842 535.098 16.8487" fill="white"/>
<path d="M537.922 18.0368H539.233C539.907 18.037 540.554 18.3048 541.031 18.7815L544.097 21.8466C544.191 21.9413 544.303 22.0163 544.426 22.0676C544.55 22.1188 544.682 22.1452 544.815 22.1452C544.949 22.1452 545.081 22.1188 545.205 22.0676C545.328 22.0163 545.44 21.9413 545.534 21.8466L548.592 18.7927C548.828 18.5566 549.109 18.3692 549.417 18.2415C549.726 18.1137 550.056 18.0479 550.39 18.048H551.455" stroke="white" stroke-width="0.750585" stroke-linecap="round" stroke-linejoin="round"/>
<path d="M537.922 27.0961H539.233C539.907 27.096 540.554 26.8281 541.031 26.3514L544.097 23.2873C544.191 23.1927 544.303 23.1176 544.426 23.0664C544.55 23.0151 544.682 22.9888 544.815 22.9888C544.949 22.9888 545.081 23.0151 545.205 23.0664C545.328 23.1176 545.44 23.1927 545.534 23.2873L548.592 26.3402C548.828 26.5764 549.109 26.7637 549.417 26.8915C549.726 27.0193 550.056 27.085 550.39 27.0849H551.455" stroke="white" stroke-width="0.750585" stroke-linecap="round" stroke-linejoin="round"/>
<path d="M514.076 29.0543C513.752 29.0552 513.432 28.992 513.133 28.8682C512.834 28.7443 512.562 28.5624 512.334 28.3329L509.819 25.8238C509.73 25.7385 509.612 25.6909 509.488 25.6909C509.365 25.6909 509.247 25.7385 509.158 25.8238L506.634 28.3471C506.406 28.5766 506.134 28.7585 505.835 28.8824C505.536 29.0062 505.216 29.0694 504.892 29.0685H504.397L507.582 32.2543C508.059 32.7318 508.707 33 509.383 33C510.059 33 510.706 32.7318 511.184 32.2543L514.378 29.0593L514.076 29.0543Z" fill="white"/>
<path d="M504.892 20.1583C505.215 20.1576 505.536 20.2209 505.835 20.3447C506.134 20.4686 506.406 20.6504 506.634 20.8797L509.158 23.404C509.246 23.4914 509.365 23.5405 509.488 23.5405C509.612 23.5405 509.731 23.4914 509.819 23.404L512.334 20.8888C512.562 20.6595 512.834 20.4777 513.133 20.3539C513.432 20.2301 513.752 20.1667 514.076 20.1675H514.38L511.186 16.9735C510.95 16.7369 510.669 16.5491 510.36 16.421C510.051 16.2929 509.72 16.227 509.385 16.227C509.05 16.227 508.719 16.2929 508.41 16.421C508.101 16.5491 507.82 16.7369 507.584 16.9735L504.399 20.1583H504.892Z" fill="white"/>
<path d="M517.021 22.8095L515.094 20.8817C515.05 20.8992 515.004 20.9085 514.957 20.9091H514.079C513.622 20.911 513.184 21.0934 512.861 21.4164L510.342 23.9265C510.23 24.0387 510.097 24.1276 509.951 24.1882C509.804 24.2488 509.647 24.2798 509.489 24.2796C509.169 24.2802 508.861 24.1535 508.635 23.9275L506.11 21.4032C505.787 21.0802 505.35 20.8978 504.893 20.8959H503.814C503.77 20.8951 503.726 20.8862 503.684 20.8696L501.747 22.8074C501.51 23.0439 501.322 23.3248 501.194 23.6338C501.066 23.9429 501 24.2742 501 24.6088C501 24.9434 501.066 25.2747 501.194 25.5838C501.322 25.8929 501.51 26.1737 501.747 26.4102L503.684 28.3481C503.726 28.3315 503.77 28.3226 503.814 28.3217H504.893C505.35 28.3195 505.787 28.1372 506.11 27.8144L508.635 25.2901C508.865 25.0706 509.17 24.9482 509.488 24.9482C509.806 24.9482 510.112 25.0706 510.342 25.2901L512.857 27.8053C513.181 28.1281 513.618 28.3104 514.075 28.3126H514.952C515 28.3131 515.046 28.3227 515.089 28.341L517.017 26.4133C517.495 25.9354 517.763 25.2874 517.763 24.6119C517.763 23.9363 517.495 23.2884 517.017 22.8105" fill="white"/>
<path d="M524.511 30.9252C524.351 30.9323 524.193 30.9565 524.038 30.9972V31.6262C524.156 31.6678 524.281 31.6888 524.406 31.6881C524.722 31.6881 524.871 31.5816 524.871 31.3036C524.871 31.0428 524.748 30.9252 524.511 30.9252V30.9252ZM523.932 32.0929V30.8501H524.019L524.028 30.9038C524.189 30.8608 524.354 30.8343 524.52 30.8247C524.635 30.8168 524.75 30.8498 524.843 30.918C524.894 30.9676 524.933 31.028 524.958 31.0947C524.982 31.1614 524.991 31.2328 524.985 31.3036C524.991 31.3826 524.975 31.4617 524.939 31.5323C524.904 31.603 524.849 31.6625 524.782 31.7044C524.668 31.7605 524.542 31.7883 524.416 31.7855C524.287 31.7848 524.16 31.7653 524.037 31.7277V32.0929H523.932Z" fill="white"/>
<path d="M525.776 30.9221C525.461 30.9221 525.321 31.0236 525.321 31.2985C525.321 31.5735 525.46 31.6881 525.776 31.6881C526.093 31.6881 526.231 31.5867 526.231 31.3127C526.231 31.0388 526.092 30.9221 525.776 30.9221V30.9221ZM526.182 31.6881C526.061 31.7633 525.919 31.7987 525.776 31.7896C525.634 31.7981 525.492 31.7627 525.37 31.6881C525.314 31.643 525.269 31.5843 525.241 31.5175C525.212 31.4507 525.201 31.3779 525.208 31.3056C525.201 31.2333 525.213 31.1605 525.241 31.0936C525.27 31.0267 525.314 30.9678 525.37 30.9221C525.492 30.8471 525.634 30.8116 525.776 30.8207C525.919 30.8118 526.06 30.8472 526.182 30.9221C526.238 30.9674 526.283 31.0259 526.311 31.0925C526.339 31.159 526.351 31.2316 526.344 31.3036C526.351 31.3761 526.34 31.4493 526.312 31.5164C526.283 31.5835 526.239 31.6425 526.182 31.6881" fill="white"/>
<path d="M527.674 31.7602L527.323 31.0053H527.316L526.97 31.7602H526.88L526.505 30.847H526.622L526.934 31.611H526.941L527.28 30.847H527.381L527.729 31.611H527.736L528.041 30.847H528.154L527.78 31.7602H527.674Z" fill="white"/>
<path d="M528.825 30.9201C528.533 30.9201 528.434 31.05 528.419 31.2377H529.237C529.229 31.0297 529.122 30.9201 528.831 30.9201H528.825ZM528.831 31.7855C528.697 31.7998 528.562 31.7637 528.453 31.6841C528.4 31.636 528.359 31.5768 528.333 31.5107C528.307 31.4447 528.295 31.3735 528.3 31.3026C528.296 31.229 528.31 31.1554 528.339 31.0878C528.369 31.0202 528.413 30.9603 528.47 30.913C528.576 30.8468 528.7 30.8149 528.825 30.8217C528.953 30.8138 529.079 30.8446 529.189 30.9099C529.321 30.9982 529.346 31.1534 529.346 31.33H528.412C528.412 31.5167 528.477 31.6831 528.83 31.6831C528.988 31.6793 529.146 31.6616 529.301 31.6303V31.7257C529.143 31.7586 528.983 31.7776 528.822 31.7825" fill="white"/>
<path d="M529.651 31.7602V30.847H529.738L529.747 30.9008C529.893 30.8529 530.045 30.8262 530.199 30.8217H530.212V30.9231H530.187C530.041 30.9263 529.896 30.9506 529.757 30.9952V31.7581L529.651 31.7602Z" fill="white"/>
<path d="M530.83 30.9201C530.538 30.9201 530.438 31.05 530.424 31.2377H531.243C531.234 31.0297 531.127 30.9201 530.837 30.9201H530.83ZM530.837 31.7855C530.703 31.7995 530.568 31.7634 530.458 31.6841C530.408 31.6355 530.369 31.5763 530.345 31.5108C530.32 31.4454 530.311 31.3753 530.316 31.3056C530.312 31.232 530.326 31.1585 530.355 31.0908C530.385 31.0232 530.429 30.9634 530.486 30.916C530.592 30.8498 530.716 30.8179 530.841 30.8247C530.968 30.8169 531.095 30.8477 531.204 30.913C531.336 31.0013 531.361 31.1565 531.361 31.333H530.428C530.428 31.5197 530.493 31.6861 530.846 31.6861C531.004 31.6823 531.162 31.6646 531.317 31.6333V31.7287C531.159 31.7616 530.998 31.7806 530.837 31.7855" fill="white"/>
<path d="M532.515 30.983C532.397 30.9418 532.273 30.9212 532.148 30.9221C531.832 30.9221 531.682 31.0286 531.682 31.3056C531.682 31.5826 531.805 31.6841 532.043 31.6841C532.202 31.6766 532.361 31.6531 532.515 31.6141V30.983ZM532.535 31.7602L532.526 31.7054C532.365 31.7487 532.2 31.7755 532.034 31.7855C531.919 31.7944 531.804 31.7608 531.712 31.6912C531.66 31.6418 531.621 31.5815 531.596 31.5148C531.571 31.448 531.562 31.3765 531.568 31.3056C531.562 31.2269 531.578 31.1481 531.614 31.0778C531.65 31.0075 531.704 30.9484 531.771 30.9069C531.885 30.8494 532.012 30.8212 532.14 30.8247C532.267 30.8262 532.394 30.8457 532.516 30.8825V30.4655H532.623V31.7602H532.535Z" fill="white"/>
<path d="M534.185 30.9252C534.025 30.9323 533.867 30.9565 533.712 30.9972V31.6242C533.83 31.6673 533.955 31.6889 534.081 31.6881C534.396 31.6881 534.545 31.5816 534.545 31.3036C534.545 31.0428 534.422 30.9252 534.185 30.9252V30.9252ZM534.457 31.7044C534.343 31.7605 534.218 31.7883 534.091 31.7855C533.953 31.7841 533.816 31.7608 533.685 31.7165V31.7602H533.612V30.4655H533.713V30.8967C533.871 30.8565 534.033 30.8313 534.195 30.8217C534.31 30.8137 534.425 30.8468 534.518 30.915C534.569 30.9646 534.608 31.0249 534.633 31.0917C534.657 31.1584 534.667 31.2298 534.66 31.3006C534.666 31.3795 534.65 31.4586 534.614 31.5293C534.579 31.5999 534.524 31.6594 534.457 31.7013" fill="white"/>
<path d="M534.794 32.1143V32.0128C534.846 32.0128 534.895 32.0219 534.929 32.0219C534.99 32.027 535.052 32.0112 535.104 31.9772C535.155 31.9432 535.194 31.8929 535.214 31.8342L535.248 31.7622L534.773 30.8491H534.895L535.301 31.6344H535.308L535.696 30.8491H535.817L535.309 31.8708C535.215 32.0564 535.114 32.1173 534.929 32.1173C534.884 32.1194 534.839 32.1183 534.794 32.1143Z" fill="white"/>
<path d="M537.286 31.2407H536.932V31.5603H537.287C537.53 31.5603 537.623 31.5329 537.623 31.399C537.623 31.265 537.496 31.2407 537.286 31.2407V31.2407ZM537.221 30.7233H536.932V31.0479H537.222C537.462 31.0479 537.558 31.0195 537.558 30.8836C537.558 30.7476 537.437 30.7233 537.221 30.7233V30.7233ZM537.769 31.6739C537.639 31.7561 537.481 31.7602 537.195 31.7602H536.657V30.5254H537.182C537.43 30.5254 537.581 30.5254 537.707 30.6045C537.749 30.6296 537.783 30.6658 537.805 30.7092C537.828 30.7526 537.837 30.8014 537.834 30.8501C537.837 30.911 537.819 30.9712 537.784 31.0209C537.748 31.0706 537.697 31.107 537.639 31.124V31.1311C537.797 31.1666 537.9 31.2478 537.9 31.4233C537.903 31.4732 537.893 31.5231 537.87 31.5674C537.847 31.6117 537.812 31.6486 537.769 31.6739" fill="white"/>
<path d="M538.978 31.3777C538.877 31.3685 538.764 31.3635 538.65 31.3635C538.465 31.3635 538.4 31.401 538.4 31.4862C538.4 31.5715 538.453 31.608 538.596 31.608C538.725 31.6035 538.853 31.5855 538.978 31.5542V31.3777ZM539.032 31.7602L539.025 31.7054C538.864 31.7511 538.698 31.778 538.531 31.7855C538.434 31.7919 538.338 31.7686 538.256 31.7186C538.222 31.6931 538.195 31.6596 538.177 31.6212C538.16 31.5828 538.152 31.5406 538.154 31.4984C538.152 31.4467 538.165 31.3954 538.193 31.3514C538.22 31.3074 538.26 31.2727 538.307 31.2519C538.416 31.211 538.533 31.1937 538.649 31.2011C538.745 31.2011 538.872 31.2062 538.979 31.2133V31.2011C538.979 31.0591 538.886 31.0124 538.629 31.0124C538.528 31.0124 538.41 31.0175 538.294 31.0287V30.844C538.422 30.8339 538.566 30.8267 538.685 30.8267C538.831 30.8139 538.978 30.8431 539.109 30.911C539.21 30.985 539.233 31.0875 539.233 31.2235V31.7622L539.032 31.7602Z" fill="white"/>
<path d="M540.421 31.7602V31.2529C540.421 31.0875 540.336 31.0276 540.184 31.0276C540.059 31.033 539.934 31.0524 539.813 31.0855V31.7561H539.562V30.843H539.765L539.774 30.8998C539.933 30.8538 540.096 30.8263 540.26 30.8176C540.373 30.8089 540.484 30.8422 540.573 30.911C540.61 30.948 540.638 30.9928 540.656 31.0421C540.673 31.0914 540.68 31.144 540.674 31.1961V31.7531L540.421 31.7602Z" fill="white"/>
<path d="M541.389 31.7855C541.268 31.7949 541.148 31.7607 541.05 31.6891C540.998 31.6401 540.958 31.5799 540.933 31.5131C540.908 31.4463 540.899 31.3746 540.906 31.3036C540.901 31.2284 540.915 31.1532 540.948 31.0851C540.98 31.0171 541.03 30.9585 541.091 30.915C541.213 30.8468 541.352 30.8154 541.491 30.8247C541.593 30.8247 541.699 30.8318 541.812 30.842V31.0368C541.72 31.0287 541.609 31.0205 541.522 31.0205C541.28 31.0205 541.166 31.0966 541.166 31.3056C541.166 31.5146 541.252 31.5867 541.45 31.5867C541.578 31.5827 541.706 31.5671 541.832 31.54V31.7277C541.686 31.7612 541.538 31.7805 541.389 31.7855Z" fill="white"/>
<path d="M542.585 31.0155C542.343 31.0155 542.237 31.0916 542.237 31.2985C542.237 31.5055 542.338 31.5938 542.585 31.5938C542.831 31.5938 542.929 31.5197 542.929 31.3127C542.929 31.1058 542.827 31.0155 542.585 31.0155V31.0155ZM543.021 31.6891C542.889 31.7641 542.737 31.7977 542.585 31.7855C542.432 31.7973 542.28 31.7638 542.147 31.6891C542.087 31.6456 542.04 31.5874 542.01 31.5201C541.98 31.4529 541.968 31.3789 541.975 31.3056C541.968 31.232 541.98 31.1578 542.01 31.0903C542.04 31.0227 542.087 30.9641 542.147 30.9201C542.28 30.8458 542.433 30.8126 542.585 30.8247C542.736 30.8131 542.888 30.8462 543.021 30.9201C543.08 30.9639 543.127 31.0223 543.156 31.0895C543.186 31.1567 543.198 31.2305 543.191 31.3036C543.198 31.377 543.186 31.451 543.156 31.5185C543.127 31.586 543.08 31.6448 543.021 31.6891" fill="white"/>
<path d="M544.658 31.7855C544.499 31.7955 544.343 31.75 544.214 31.6567C544.066 31.5349 544.022 31.3452 544.022 31.1413C544.016 31.0399 544.036 30.9388 544.08 30.8472C544.124 30.7555 544.19 30.6763 544.272 30.6167C544.432 30.5286 544.613 30.4881 544.795 30.5001C544.932 30.5001 545.072 30.5092 545.225 30.5214V30.7436C545.094 30.7324 544.932 30.7233 544.806 30.7233C544.454 30.7233 544.305 30.8572 544.305 31.1413C544.305 31.4254 544.443 31.5613 544.702 31.5613C544.888 31.5552 545.072 31.5304 545.252 31.4873V31.7084C545.057 31.7541 544.858 31.7803 544.658 31.7866" fill="white"/>
<path d="M545.999 30.9871C545.788 30.9871 545.707 31.0621 545.695 31.2011H546.303C546.296 31.053 546.21 30.9871 545.999 30.9871ZM545.961 31.7855C545.825 31.7979 545.689 31.762 545.576 31.6841C545.524 31.6358 545.484 31.5765 545.459 31.5106C545.434 31.4447 545.424 31.3739 545.43 31.3036C545.426 31.2308 545.439 31.158 545.469 31.0913C545.498 31.0246 545.543 30.966 545.6 30.9201C545.72 30.848 545.859 30.8147 545.999 30.8247C546.137 30.8162 546.274 30.8479 546.394 30.916C546.54 31.0175 546.552 31.1778 546.554 31.3655H545.688C545.695 31.5045 545.769 31.5938 546.024 31.5938C546.187 31.5902 546.349 31.5746 546.509 31.5471V31.7257C546.329 31.76 546.145 31.78 545.961 31.7855Z" fill="white"/>
<path d="M547.684 31.7602V31.2529C547.684 31.0875 547.6 31.0276 547.449 31.0276C547.323 31.033 547.199 31.0524 547.077 31.0855V31.7561H546.823V30.843H547.031L547.04 30.8998C547.198 30.8538 547.361 30.8262 547.526 30.8176C547.638 30.8089 547.749 30.8422 547.838 30.911C547.875 30.948 547.904 30.9928 547.921 31.0421C547.939 31.0914 547.945 31.144 547.94 31.1961V31.7531L547.684 31.7602Z" fill="white"/>
<path d="M548.66 31.7855C548.604 31.791 548.547 31.7819 548.496 31.7592C548.444 31.7364 548.399 31.7008 548.365 31.6557C548.315 31.5728 548.291 31.4764 548.298 31.3797V31.0388H548.114V30.8501H548.298L548.325 30.5741H548.551V30.8501H548.909V31.0388H548.551V31.331C548.547 31.39 548.556 31.449 548.576 31.5045C548.591 31.5339 548.616 31.5579 548.645 31.573C548.675 31.588 548.708 31.5935 548.741 31.5887C548.802 31.5877 548.863 31.5815 548.923 31.5704V31.7531C548.837 31.772 548.749 31.7829 548.66 31.7855" fill="white"/>
<path d="M549.157 31.7602V30.847H549.36L549.369 30.9039C549.515 30.8548 549.667 30.8271 549.82 30.8217H549.852V31.0388C549.823 31.0388 549.789 31.0388 549.764 31.0388C549.644 31.0392 549.524 31.0549 549.407 31.0855V31.7581L549.157 31.7602Z" fill="white"/>
<path d="M550.781 31.3777C550.674 31.3685 550.566 31.3635 550.452 31.3635C550.266 31.3635 550.201 31.401 550.201 31.4862C550.201 31.5715 550.256 31.608 550.398 31.608C550.527 31.6033 550.655 31.5853 550.781 31.5542V31.3777ZM550.834 31.7602L550.824 31.7084C550.663 31.7541 550.497 31.781 550.33 31.7886C550.234 31.7949 550.137 31.7715 550.054 31.7216C550.021 31.696 549.994 31.6625 549.976 31.6241C549.958 31.5858 549.95 31.5436 549.953 31.5014C549.95 31.4482 549.965 31.3956 549.993 31.3508C550.022 31.3061 550.065 31.2715 550.114 31.2519C550.223 31.2119 550.339 31.1953 550.454 31.2032C550.549 31.2032 550.678 31.2082 550.785 31.2153V31.2011C550.785 31.0591 550.69 31.0124 550.435 31.0124C550.333 31.0124 550.215 31.0175 550.099 31.0286V30.844C550.228 30.8338 550.372 30.8267 550.491 30.8267C550.637 30.8138 550.784 30.843 550.914 30.911C551.015 30.985 551.038 31.0875 551.038 31.2235V31.7622L550.834 31.7602Z" fill="white"/>
<path d="M551.361 30.4655H551.616V31.7602H551.361V30.4655Z" fill="white"/>
<path fill-rule="evenodd" clip-rule="evenodd" d="M426.692 17.8659C427.633 17.9452 428.573 17.3901 429.16 16.6863C429.738 15.9627 430.12 14.9913 430.022 14C429.19 14.0397 428.161 14.5551 427.574 15.2787C427.035 15.9032 426.575 16.9143 426.692 17.8659ZM437.875 30.6333V15.1796H443.604C446.561 15.1796 448.628 17.2414 448.628 20.2548C448.628 23.2683 446.522 25.3499 443.526 25.3499H440.245V30.6333H437.875ZM430.012 18.0542C429.184 18.006 428.428 18.3064 427.818 18.549C427.425 18.7051 427.092 18.8373 426.839 18.8373C426.555 18.8373 426.209 18.6981 425.82 18.5417L425.82 18.5417L425.82 18.5417L425.82 18.5417C425.31 18.3368 424.728 18.1025 424.117 18.1137C422.717 18.1335 421.414 18.9365 420.699 20.2152C419.23 22.7726 420.317 26.5593 421.737 28.6409C422.433 29.6718 423.265 30.8018 424.362 30.7622C424.844 30.7438 425.191 30.5947 425.551 30.4404C425.964 30.2628 426.394 30.0782 427.064 30.0782C427.712 30.0782 428.123 30.2579 428.517 30.4305C428.892 30.5945 429.252 30.752 429.787 30.7424C430.923 30.7225 431.638 29.7115 432.333 28.6806C433.083 27.5741 433.413 26.4943 433.463 26.3304L433.469 26.3114C433.468 26.3102 433.458 26.3059 433.442 26.2984C433.191 26.1821 431.274 25.2937 431.256 22.9114C431.237 20.9118 432.776 19.8987 433.019 19.7392C433.033 19.7295 433.043 19.723 433.048 19.7196C432.068 18.2525 430.541 18.0939 430.012 18.0542ZM452.956 30.7523C454.445 30.7523 455.825 29.989 456.452 28.7797H456.501V30.6333H458.694V22.9412C458.694 20.7108 456.932 19.2735 454.219 19.2735C451.703 19.2735 449.842 20.7307 449.773 22.733H451.908C452.085 21.7814 452.956 21.1569 454.151 21.1569C455.6 21.1569 456.413 21.8409 456.413 23.0998V23.9522L453.455 24.1307C450.704 24.2992 449.215 25.4391 449.215 27.4217C449.215 29.424 450.753 30.7523 452.956 30.7523ZM453.592 28.9185C452.329 28.9185 451.526 28.3039 451.526 27.3622C451.526 26.3908 452.3 25.8257 453.778 25.7365L456.413 25.568V26.4403C456.413 27.8876 455.198 28.9185 453.592 28.9185ZM465.97 31.238C465.02 33.9442 463.933 34.8363 461.622 34.8363C461.446 34.8363 460.859 34.8165 460.721 34.7768V32.9232C460.868 32.943 461.231 32.9628 461.417 32.9628C462.465 32.9628 463.052 32.5167 463.414 31.357L463.63 30.673L459.615 19.4222H462.092L464.883 28.5517H464.932L467.723 19.4222H470.132L465.97 31.238ZM440.245 17.2018H442.977C445.034 17.2018 446.209 18.312 446.209 20.2648C446.209 22.2175 445.034 23.3377 442.967 23.3377H440.245V17.2018Z" fill="white"/>
<path d="M382.994 28.6378H383.029L385.948 21.3116H388L381.693 36.0001H379.747L382.092 30.8614L377.953 21.3116H380.005L382.994 28.6378ZM373.123 20.9786C374.518 20.9786 375.621 21.3592 376.43 22.1085C377.238 22.8577 377.637 23.9047 377.637 25.2247V31.5157H375.831V30.1007H375.749C374.964 31.2661 373.932 31.8487 372.631 31.8487C371.529 31.8487 370.591 31.5157 369.853 30.8497C369.126 30.2313 368.716 29.3158 368.739 28.3526C368.739 27.2942 369.138 26.4615 369.923 25.8311C370.708 25.2008 371.763 24.8917 373.076 24.8917C374.201 24.8917 375.116 25.1056 375.843 25.5098V25.0694C375.843 24.4154 375.562 23.7973 375.069 23.3692C374.565 22.9173 373.92 22.6671 373.252 22.6671C372.197 22.6672 371.364 23.1197 370.755 24.0235L369.091 22.9649C369.982 21.6448 371.33 20.9787 373.123 20.9786ZM364.179 16.6016C365.386 16.5779 366.558 17.0414 367.414 17.8975C369.126 19.5151 369.231 22.239 367.625 23.9874L367.414 24.2012C366.535 25.0457 365.456 25.4737 364.179 25.4737H361.061V31.5157H359.173V16.6016H364.179ZM373.37 26.4376C372.608 26.4376 371.963 26.6275 371.447 26.9962C370.943 27.3648 370.686 27.8289 370.686 28.3878C370.686 28.8873 370.92 29.3513 371.307 29.6368C371.729 29.9698 372.245 30.1487 372.772 30.1368C373.57 30.1367 374.332 29.8151 374.895 29.2442C375.516 28.6496 375.832 27.9475 375.832 27.1387C375.246 26.6633 374.425 26.4257 373.37 26.4376ZM361.061 23.6427H364.227C364.93 23.6663 365.61 23.3806 366.091 22.8692C367.075 21.8346 367.052 20.17 366.032 19.171C365.552 18.6953 364.906 18.4328 364.227 18.4327H361.061V23.6427Z" fill="white"/>
<path d="M354.544 24.1659C354.544 23.5831 354.497 23.0003 354.404 22.4295H346.444V25.724H351.004C350.816 26.7825 350.207 27.734 349.316 28.3286V30.4695H352.035C353.63 28.9828 354.544 26.7825 354.544 24.1659Z" fill="white"/>
<path d="M346.444 32.539C348.718 32.539 350.641 31.7778 352.036 30.4695L349.316 28.3287C348.554 28.852 347.581 29.1493 346.444 29.1493C344.24 29.1493 342.376 27.6388 341.708 25.6169H338.906V27.8291C340.336 30.7192 343.255 32.539 346.444 32.539Z" fill="white"/>
<path d="M341.708 25.617C341.356 24.5584 341.356 23.4048 341.708 22.3344V20.134H338.906C337.698 22.5484 337.698 25.4029 338.906 27.8173L341.708 25.617Z" fill="white"/>
<path d="M346.444 18.8019C347.651 18.7782 348.812 19.242 349.679 20.0864L352.094 17.6364C350.559 16.1854 348.542 15.3885 346.444 15.4123C343.255 15.4123 340.336 17.2439 338.906 20.134L341.708 22.3462C342.376 20.3124 344.24 18.8019 346.444 18.8019Z" fill="white"/>
<path fill-rule="evenodd" clip-rule="evenodd" d="M265.8 30.4819H262.689C262.476 30.4819 262.295 30.6366 262.262 30.8467L261.003 38.8248C260.978 38.9823 261.1 39.1242 261.26 39.1242H262.745C262.958 39.1242 263.139 38.9695 263.172 38.7589L263.512 36.6072C263.544 36.3964 263.726 36.2419 263.938 36.2419H264.923C266.973 36.2419 268.156 35.2501 268.465 33.2848C268.604 32.425 268.471 31.7495 268.068 31.2762C267.626 30.7568 266.841 30.4819 265.8 30.4819ZM266.159 33.3958C265.989 34.5122 265.136 34.5122 264.311 34.5122H263.842L264.171 32.4271C264.19 32.3012 264.3 32.2084 264.427 32.2084H264.642C265.204 32.2084 265.734 32.2084 266.008 32.5286C266.171 32.7198 266.221 33.0036 266.159 33.3958ZM275.1 33.36H273.61C273.483 33.36 273.374 33.4528 273.354 33.5789L273.288 33.9956L273.184 33.8446C272.862 33.3764 272.142 33.22 271.424 33.22C269.778 33.22 268.372 34.4669 268.098 36.2162C267.956 37.0886 268.158 37.9229 268.653 38.5048C269.107 39.0398 269.757 39.2627 270.529 39.2627C271.856 39.2627 272.592 38.4097 272.592 38.4097L272.525 38.8238C272.5 38.9821 272.622 39.124 272.781 39.124H274.123C274.336 39.124 274.516 38.9693 274.55 38.7587L275.355 33.6594C275.381 33.5025 275.259 33.36 275.1 33.36ZM273.023 36.2598C272.88 37.1109 272.204 37.6823 271.343 37.6823C270.91 37.6823 270.564 37.5436 270.342 37.2806C270.122 37.0196 270.038 36.6478 270.108 36.2339C270.243 35.3899 270.929 34.8 271.778 34.8C272.201 34.8 272.545 34.9404 272.771 35.2057C272.998 35.4737 273.088 35.8476 273.023 36.2598ZM281.538 33.3598H283.035C283.245 33.3598 283.367 33.5949 283.248 33.7669L278.268 40.9547C278.188 41.0712 278.055 41.1404 277.913 41.1404H276.418C276.207 41.1404 276.084 40.9034 276.206 40.7309L277.757 38.5423L276.108 33.7027C276.051 33.5345 276.175 33.3598 276.354 33.3598H277.825C278.016 33.3598 278.185 33.4852 278.24 33.6682L279.115 36.5911L281.18 33.5495C281.261 33.4307 281.395 33.3598 281.538 33.3598Z" fill="white"/>
<path fill-rule="evenodd" clip-rule="evenodd" d="M297.771 38.8248L299.048 30.7008C299.067 30.5747 299.177 30.4818 299.304 30.4814H300.741C300.9 30.4814 301.022 30.6237 300.997 30.7812L299.737 38.7589C299.705 38.9694 299.524 39.1242 299.31 39.1242H298.026C297.868 39.1242 297.746 38.9823 297.771 38.8248ZM287.992 30.4818H284.88C284.668 30.4818 284.487 30.6366 284.454 30.8467L283.195 38.8248C283.17 38.9823 283.292 39.1242 283.451 39.1242H285.048C285.196 39.1242 285.323 39.0159 285.346 38.8686L285.703 36.6071C285.736 36.3964 285.918 36.2418 286.13 36.2418H287.114C289.164 36.2418 290.347 35.25 290.656 33.2848C290.796 32.425 290.662 31.7494 290.259 31.2761C289.817 30.7568 289.033 30.4818 287.992 30.4818ZM288.351 33.3957C288.181 34.5121 287.328 34.5121 286.503 34.5121H286.034L286.364 32.4271C286.384 32.3012 286.492 32.2084 286.62 32.2084H286.835C287.396 32.2084 287.927 32.2084 288.2 32.5286C288.364 32.7197 288.413 33.0035 288.351 33.3957ZM297.292 33.3599H295.803C295.675 33.3599 295.566 33.4528 295.547 33.5789L295.481 33.9955L295.376 33.8446C295.054 33.3764 294.335 33.2199 293.617 33.2199C291.971 33.2199 290.565 34.4669 290.291 36.2162C290.149 37.0886 290.351 37.9229 290.846 38.5048C291.301 39.0397 291.949 39.2627 292.722 39.2627C294.049 39.2627 294.784 38.4096 294.784 38.4096L294.718 38.8237C294.693 38.9821 294.815 39.1239 294.975 39.1239H296.316C296.529 39.1239 296.71 38.9692 296.743 38.7587L297.549 33.6593C297.573 33.5025 297.451 33.3599 297.292 33.3599ZM295.215 36.2597C295.072 37.1109 294.396 37.6823 293.534 37.6823C293.102 37.6823 292.756 37.5435 292.533 37.2806C292.313 37.0195 292.23 36.6477 292.3 36.2338C292.435 35.3898 293.121 34.7999 293.969 34.7999C294.392 34.7999 294.736 34.9404 294.963 35.2056C295.191 35.4736 295.281 35.8475 295.215 36.2597Z" fill="white"/>
<path d="M277.314 27.6277L277.697 25.1982L276.845 25.1785H272.776L275.603 7.25079C275.612 7.19667 275.641 7.14621 275.682 7.11037C275.724 7.07454 275.778 7.05479 275.833 7.05479H282.693C284.971 7.05479 286.542 7.52871 287.363 8.4641C287.748 8.90292 287.993 9.36147 288.111 9.86611C288.235 10.3956 288.238 11.0282 288.116 11.7998L288.107 11.8561V12.3505L288.492 12.5685C288.816 12.7403 289.073 12.9371 289.271 13.1623C289.6 13.5375 289.813 14.0143 289.903 14.5797C289.996 15.1611 289.965 15.853 289.813 16.6362C289.637 17.5373 289.354 18.322 288.97 18.9641C288.618 19.5558 288.169 20.0464 287.636 20.4269C287.127 20.7881 286.522 21.0624 285.838 21.238C285.175 21.4104 284.42 21.4976 283.591 21.4976H283.057C282.676 21.4976 282.305 21.6351 282.014 21.8816C281.722 22.1332 281.529 22.4768 281.47 22.8528L281.429 23.0715L280.754 27.3534L280.723 27.5107C280.715 27.5606 280.701 27.5854 280.681 27.6023C280.662 27.6174 280.636 27.6277 280.61 27.6277H277.314Z" fill="white"/>
<path d="M288.856 11.9134C288.836 12.0443 288.813 12.1781 288.786 12.3156C287.881 16.9605 284.786 18.5651 280.833 18.5651H278.821C278.337 18.5651 277.93 18.9161 277.855 19.3929L276.824 25.9284L276.532 27.7808C276.483 28.0939 276.725 28.3762 277.041 28.3762H280.61C281.033 28.3762 281.392 28.069 281.459 27.6522L281.494 27.4707L282.166 23.2054L282.209 22.9715C282.275 22.5532 282.635 22.2461 283.057 22.2461H283.591C287.05 22.2461 289.757 20.8418 290.549 16.7784C290.879 15.0809 290.708 13.6635 289.833 12.6667C289.569 12.3661 289.24 12.1167 288.856 11.9134Z" fill="#F4F4F4"/>
<path d="M287.91 11.5363C287.772 11.4961 287.629 11.4595 287.482 11.4266C287.336 11.3945 287.185 11.3659 287.03 11.3411C286.487 11.2533 285.893 11.2116 285.256 11.2116H279.879C279.746 11.2116 279.621 11.2416 279.508 11.2957C279.26 11.4149 279.076 11.6497 279.031 11.9371L277.887 19.1819L277.854 19.3933C277.93 18.9164 278.337 18.5654 278.82 18.5654H280.833C284.786 18.5654 287.881 16.9601 288.786 12.316C288.813 12.1785 288.836 12.0446 288.856 11.9137C288.627 11.7923 288.379 11.6885 288.112 11.6C288.046 11.578 287.978 11.5568 287.91 11.5363Z" fill="white"/>
<path d="M279.031 11.937C279.076 11.6495 279.26 11.4148 279.508 11.2963C279.621 11.2422 279.747 11.2122 279.879 11.2122H285.256C285.893 11.2122 286.487 11.2539 287.03 11.3416C287.185 11.3665 287.336 11.395 287.483 11.4272C287.629 11.4601 287.772 11.4967 287.91 11.5369C287.979 11.5574 288.047 11.5786 288.113 11.5998C288.38 11.6883 288.628 11.7929 288.857 11.9136C289.126 10.1971 288.855 9.02837 287.927 7.97009C286.904 6.80505 285.057 6.30627 282.694 6.30627H275.834C275.351 6.30627 274.939 6.65731 274.865 7.13489L272.007 25.2468C271.951 25.6052 272.227 25.9285 272.589 25.9285H276.824L277.887 19.1817L279.031 11.937Z" fill="white"/>
<path d="M126.353 10C133.89 10 140 16.181 140 23.8057C140 31.4305 133.89 37.6123 126.353 37.6123C122.974 37.6123 119.883 36.3694 117.5 34.3125C115.117 36.3694 112.026 37.6123 108.647 37.6123C101.11 37.6123 95 31.4305 95 23.8057C95.0002 16.181 101.11 10 108.647 10C112.025 10 115.117 11.2413 117.5 13.2979C119.883 11.2413 122.975 10 126.353 10Z" fill="white"/>
<path d="M126.353 10C133.89 10 140 16.181 140 23.8057C140 31.4305 133.89 37.6123 126.353 37.6123C122.974 37.6123 119.883 36.3694 117.5 34.3125C120.434 31.7802 122.295 28.013 122.295 23.8057C122.295 19.5981 120.434 15.8301 117.5 13.2979C119.883 11.2413 122.975 10 126.353 10Z" fill="#F4F4F4"/>
<path d="M117.5 13.2981C120.434 15.8304 122.295 19.5983 122.295 23.8059C122.295 28.0133 120.434 31.7805 117.5 34.3128C114.566 31.7805 112.705 28.0133 112.705 23.8059C112.705 19.5984 114.566 15.8304 117.5 13.2981Z" fill="white"/>
<path fill-rule="evenodd" clip-rule="evenodd" d="M176.549 17L170 31.4935H177.84L178.812 29.1826H181.034L182.006 31.4935H190.636V29.7298L191.405 31.4935H195.87L196.639 29.6925V31.4935H214.587L216.769 29.2426L218.813 31.4935L228.032 31.5121L221.462 24.2872L228.032 17H218.956L216.832 19.2093L214.852 17H195.327L193.65 20.7409L191.934 17H184.11V18.7037L183.24 17H176.549ZM203.352 19.0581H213.658L216.811 22.4633L220.065 19.0581H223.217L218.427 24.2852L223.217 29.452H219.922L216.769 26.0073L213.499 29.452H203.352V19.0581ZM205.897 23.1099V21.2114V21.2096H212.328L215.134 24.2458L212.204 27.2986H205.897V25.226H211.52V23.1099H205.897ZM178.066 19.0581H181.888L186.232 28.8862V19.0581H190.419L193.774 26.1048L196.867 19.0581H201.033V29.4581H198.498L198.477 21.3087L194.782 29.4581H192.514L188.798 21.3087V29.4581H183.584L182.595 27.1266H177.254L176.267 29.4561H173.474L178.066 19.0581ZM178.166 24.9712L179.926 20.8177L181.683 24.9712H178.166Z" fill="white"/>
<path fill-rule="evenodd" clip-rule="evenodd" d="M21.2505 32.5165H17.0099L13.8299 20.3847C13.679 19.8267 13.3585 19.3333 12.8871 19.1008C11.7106 18.5165 10.4142 18.0514 9 17.8169V17.3498H15.8313C16.7742 17.3498 17.4813 18.0514 17.5991 18.8663L19.2491 27.6173L23.4877 17.3498H27.6104L21.2505 32.5165ZM29.9675 32.5165H25.9626L29.2604 17.3498H33.2653L29.9675 32.5165ZM38.4467 21.5514C38.5646 20.7346 39.2717 20.2675 40.0967 20.2675C41.3931 20.1502 42.8052 20.3848 43.9838 20.9671L44.6909 17.7016C43.5123 17.2345 42.216 17 41.0395 17C37.1524 17 34.3239 19.1008 34.3239 22.0165C34.3239 24.2346 36.3274 25.3992 37.7417 26.1008C39.2717 26.8004 39.861 27.2675 39.7431 27.9671C39.7431 29.0165 38.5646 29.4836 37.3881 29.4836C35.9739 29.4836 34.5596 29.1338 33.2653 28.5494L32.5582 31.8169C33.9724 32.3992 35.5025 32.6338 36.9167 32.6338C41.2752 32.749 43.9838 30.6502 43.9838 27.5C43.9838 23.5329 38.4467 23.3004 38.4467 21.5514V21.5514ZM58 32.5165L54.82 17.3498H51.4044C50.6972 17.3498 49.9901 17.8169 49.7544 18.5165L43.8659 32.5165H47.9887L48.8116 30.3004H53.8772L54.3486 32.5165H58ZM51.9936 21.4342L53.1701 27.1502H49.8723L51.9936 21.4342Z" fill="white"/>
<path d="M597.184 28.9138V20.8195C597.184 20.8101 597.185 20.8007 597.188 20.7918C597.192 20.783 597.197 20.7749 597.203 20.768C597.21 20.7611 597.217 20.7556 597.226 20.7517C597.235 20.7478 597.244 20.7456 597.253 20.7453H598.812C598.832 20.7453 598.851 20.7531 598.865 20.767C598.879 20.781 598.887 20.7998 598.887 20.8195V23.7364H598.91C599.12 23.4856 599.385 23.2869 599.685 23.156C599.985 23.0251 600.311 22.9655 600.637 22.982C601.861 22.982 602.254 23.7819 602.254 24.8427V28.9138C602.254 28.9335 602.246 28.9524 602.232 28.9663C602.218 28.9803 602.199 28.9881 602.179 28.9881H600.616C600.596 28.9881 600.577 28.9803 600.563 28.9663C600.549 28.9524 600.541 28.9335 600.541 28.9138V24.9936C600.541 24.5338 600.062 24.3925 599.756 24.3925C599.449 24.3925 598.887 24.5937 598.887 25.1684V28.9138C598.887 28.9335 598.879 28.9524 598.865 28.9663C598.851 28.9803 598.832 28.9881 598.812 28.9881H597.258C597.248 28.9881 597.239 28.9862 597.23 28.9824C597.221 28.9787 597.212 28.9732 597.206 28.9663C597.199 28.9594 597.193 28.9513 597.189 28.9422C597.186 28.9332 597.184 28.9236 597.184 28.9138V28.9138Z" fill="white"/>
<path d="M609.594 27.3165V24.5362H608.875C608.865 24.5362 608.856 24.5343 608.847 24.5305C608.838 24.5268 608.83 24.5213 608.823 24.5145C608.816 24.5076 608.81 24.4994 608.807 24.4904C608.803 24.4814 608.801 24.4717 608.801 24.462V23.4514C608.801 23.436 608.806 23.4211 608.815 23.4087C608.824 23.3962 608.837 23.3869 608.851 23.3819L609.809 23.1017L610.319 21.5044C610.324 21.4939 610.331 21.4847 610.34 21.4776C610.35 21.4705 610.36 21.4657 610.372 21.4637H611.21C611.22 21.4631 611.229 21.4644 611.238 21.4676C611.247 21.4708 611.255 21.4758 611.262 21.4823C611.269 21.4888 611.275 21.4967 611.279 21.5054C611.282 21.5142 611.284 21.5236 611.284 21.5332V23.1137H612.542C612.561 23.1137 612.58 23.1215 612.594 23.1355C612.608 23.1494 612.616 23.1683 612.616 23.1879V24.4668C612.616 24.4858 612.608 24.5041 612.595 24.5176C612.581 24.531 612.563 24.5386 612.544 24.5386H611.284V27.1393C611.284 27.4099 611.438 27.5752 611.813 27.5752H612.532C612.542 27.5745 612.552 27.5759 612.562 27.5794C612.571 27.5828 612.58 27.5882 612.588 27.5951C612.595 27.6021 612.601 27.6105 612.605 27.6198C612.609 27.6292 612.611 27.6392 612.611 27.6494V28.7725C612.611 28.7875 612.606 28.8021 612.597 28.8145C612.589 28.8268 612.577 28.8364 612.563 28.842C612.187 29.0139 611.779 29.1037 611.366 29.1054C610.113 29.1054 609.598 28.363 609.598 27.3165H609.594Z" fill="white"/>
<path d="M633.924 27.3165V24.5362H633.206C633.186 24.5362 633.167 24.5284 633.153 24.5145C633.14 24.5005 633.132 24.4816 633.132 24.462V23.4514C633.132 23.436 633.137 23.4211 633.146 23.4086C633.155 23.3962 633.167 23.3869 633.182 23.3819L634.14 23.1017L634.65 21.5044C634.655 21.4897 634.664 21.4768 634.676 21.4678C634.689 21.4587 634.704 21.4539 634.719 21.4541H635.558C635.567 21.4535 635.577 21.4548 635.586 21.458C635.595 21.4612 635.603 21.4662 635.61 21.4727C635.617 21.4792 635.622 21.4871 635.626 21.4958C635.63 21.5046 635.632 21.514 635.632 21.5236V23.0993H636.889C636.909 23.0993 636.928 23.1072 636.942 23.1211C636.956 23.135 636.963 23.1539 636.963 23.1736V24.4524C636.963 24.4714 636.956 24.4897 636.942 24.5032C636.929 24.5167 636.911 24.5242 636.892 24.5242H635.632V27.1345C635.632 27.4051 635.785 27.5704 636.161 27.5704H636.88C636.889 27.5704 636.899 27.5723 636.908 27.576C636.917 27.5797 636.925 27.5852 636.932 27.5921C636.939 27.599 636.944 27.6072 636.948 27.6162C636.952 27.6252 636.954 27.6349 636.954 27.6446V28.7678C636.953 28.7827 636.949 28.7973 636.94 28.8097C636.932 28.822 636.92 28.8316 636.906 28.8372C636.53 29.0091 636.122 29.0989 635.708 29.1006C634.439 29.1006 633.924 28.3582 633.924 27.3117V27.3165Z" fill="white"/>
<path d="M613.648 28.9138V23.1664C613.648 23.1467 613.656 23.1278 613.67 23.1139C613.684 23.1 613.702 23.0922 613.722 23.0922H615.125C615.141 23.092 615.156 23.0967 615.168 23.1058C615.181 23.1149 615.19 23.1277 615.195 23.1424L615.358 23.7268H615.382C615.588 23.4773 615.85 23.2794 616.147 23.1484C616.443 23.0175 616.766 22.9573 617.089 22.9724C617.925 22.9724 618.327 23.3484 618.552 23.9303H618.6C618.795 23.6212 619.069 23.3695 619.394 23.2011C619.718 23.0328 620.082 22.9539 620.447 22.9724C621.67 22.9724 622.063 23.7723 622.063 24.8331V28.9043C622.063 28.9239 622.055 28.9428 622.041 28.9567C622.027 28.9707 622.009 28.9785 621.989 28.9785H620.43C620.41 28.9785 620.391 28.9707 620.377 28.9567C620.363 28.9428 620.356 28.9239 620.356 28.9043V25.0152C620.356 24.5554 619.922 24.3781 619.616 24.3781C619.261 24.3781 618.734 24.6033 618.71 25.1205V28.9138C618.711 28.9233 618.709 28.9327 618.706 28.9415C618.703 28.9504 618.698 28.9585 618.691 28.9653C618.685 28.9722 618.677 28.9778 618.668 28.9817C618.66 28.9856 618.65 28.9878 618.641 28.9881H617.072C617.053 28.9869 617.035 28.9786 617.022 28.9649C617.009 28.9511 617.001 28.9329 617.001 28.9138V25.0152C617.001 24.5554 616.541 24.3781 616.205 24.3781C615.986 24.3761 615.774 24.4602 615.615 24.6123C615.456 24.7644 615.363 24.9726 615.355 25.1924V28.9138C615.355 28.9329 615.347 28.9511 615.334 28.9649C615.321 28.9786 615.303 28.9869 615.283 28.9881H613.724C613.705 28.9881 613.686 28.9807 613.672 28.9673C613.658 28.954 613.649 28.9357 613.648 28.9162V28.9138Z" fill="white"/>
<path d="M623.09 24.3949V23.3388C623.091 23.3219 623.097 23.3057 623.108 23.2927C623.119 23.2797 623.134 23.2707 623.15 23.267C623.898 23.104 624.66 23.0134 625.425 22.9964C626.932 22.9964 627.82 23.3604 627.82 24.9864V28.9162C627.82 28.9359 627.812 28.9548 627.798 28.9687C627.784 28.9827 627.766 28.9905 627.746 28.9905H626.261C626.245 28.9904 626.229 28.9849 626.217 28.9749C626.204 28.9649 626.195 28.951 626.192 28.9354L626.022 28.3535H626.089C625.665 28.9426 625.102 29.1078 624.412 29.1078C623.306 29.1078 622.717 28.2481 622.717 27.2351C622.717 25.7049 623.835 25.3983 624.671 25.3983H626.108V25.0152C626.108 24.5362 625.749 24.4284 624.384 24.4284C623.806 24.4284 623.186 24.4739 623.16 24.4739C623.141 24.4716 623.123 24.4622 623.11 24.4477C623.097 24.4331 623.09 24.4143 623.09 24.3949V24.3949ZM626.113 26.452H625.179C624.683 26.452 624.362 26.6412 624.362 27.1704C624.362 27.7404 624.772 27.8697 625.164 27.8697C625.284 27.8762 625.403 27.8591 625.516 27.8194C625.629 27.7797 625.732 27.7181 625.821 27.6383C625.91 27.5585 625.983 27.4619 626.034 27.3541C626.086 27.2463 626.116 27.1294 626.122 27.01C626.125 26.9773 626.125 26.9445 626.122 26.9118V26.4329L626.113 26.452Z" fill="white"/>
<path d="M628.812 28.9138V23.1664C628.812 23.1563 628.815 23.1464 628.819 23.1374C628.824 23.1283 628.83 23.1204 628.838 23.1141C628.846 23.1077 628.855 23.1031 628.865 23.1006C628.875 23.0981 628.885 23.0976 628.895 23.0993H630.284C630.302 23.0986 630.319 23.1043 630.332 23.1154C630.345 23.1264 630.354 23.1421 630.356 23.1592L630.521 24.0525H630.545C630.719 23.7227 630.981 23.4479 631.302 23.2588C631.623 23.0697 631.99 22.9739 632.363 22.982C632.373 22.982 632.382 22.9839 632.391 22.9877C632.4 22.9914 632.409 22.9969 632.415 23.0037C632.422 23.0106 632.428 23.0188 632.432 23.0278C632.435 23.0368 632.437 23.0465 632.437 23.0562V24.6559C632.437 24.6756 632.429 24.6945 632.415 24.7084C632.402 24.7224 632.383 24.7302 632.363 24.7302H631.965C630.895 24.7302 630.529 25.1588 630.529 25.6881V28.9043C630.528 28.9234 630.52 28.9416 630.507 28.9553C630.494 28.969 630.476 28.9773 630.457 28.9785H628.895C628.876 28.9806 628.856 28.975 628.84 28.963C628.825 28.9509 628.814 28.9333 628.812 28.9138V28.9138Z" fill="white"/>
<path d="M602.967 26.0449C602.967 24.1722 603.686 22.9844 605.769 22.9844C607.853 22.9844 608.583 24.1818 608.583 26.0449C608.583 27.908 607.853 29.1054 605.769 29.1054C603.686 29.1054 602.967 27.9296 602.967 26.0449ZM604.806 26.0449C604.806 27.0579 604.955 27.6781 605.764 27.6781C606.574 27.6781 606.739 27.0579 606.739 26.0449C606.739 25.0319 606.588 24.4213 605.764 24.4213C604.941 24.4213 604.806 25.0319 604.806 26.0449Z" fill="white"/>
<path d="M593.987 25.4606C594.068 23.8585 593.508 21.2386 592.176 19.0953C592.14 19.0402 592.081 19.0618 592.093 19.1193C592.181 19.445 592.203 20.0365 591.685 20.0005C590.766 19.9383 591.717 17.9698 589.698 16.6048C589.694 16.6006 589.689 16.5973 589.684 16.5951C589.679 16.5928 589.673 16.5916 589.668 16.5916C589.662 16.5916 589.657 16.5928 589.652 16.5951C589.646 16.5973 589.642 16.6006 589.638 16.6048C589.632 16.6123 589.629 16.6216 589.629 16.6311C589.629 16.6406 589.632 16.6499 589.638 16.6574C589.777 16.9209 589.858 17.7423 589.54 18.0225C589.284 18.2476 588.821 18.1877 588.359 17.4477C588.051 16.9379 587.891 16.3521 587.898 15.7563C587.905 15.1606 588.078 14.5786 588.397 14.0759C588.436 14.0136 588.383 13.9897 588.34 14.004C585.562 14.9212 585.006 18.1973 584.415 19.3899C584.317 19.591 584.231 19.694 584.061 19.6844C583.555 19.6509 583.919 18.5709 584.094 18.1949C584.096 18.1896 584.098 18.1838 584.098 18.178C584.098 18.1722 584.097 18.1664 584.094 18.161C584.092 18.1557 584.089 18.1508 584.085 18.1467C584.08 18.1427 584.076 18.1395 584.07 18.1374C584.063 18.1329 584.055 18.1305 584.047 18.1305C584.039 18.1305 584.031 18.1329 584.025 18.1374C582.401 19.9218 581.364 22.1609 581.053 24.553C581.053 24.4979 581.029 24.7494 581.014 24.9338C581.014 25.0066 581.009 25.0794 581 25.1517V25.4127C581.015 27.1175 581.7 28.7481 582.906 29.9532C584.112 31.1583 585.743 31.8415 587.448 31.8556C589.152 31.8698 590.795 31.2137 592.02 30.0288C593.246 28.8438 593.958 27.2248 594.001 25.5205C593.991 25.5022 593.986 25.4815 593.987 25.4606V25.4606ZM587.466 28.4804C586.869 28.4775 586.286 28.2976 585.792 27.9633C585.297 27.6289 584.913 27.1554 584.688 26.6025C584.463 26.0497 584.407 25.4425 584.527 24.8578C584.648 24.2731 584.939 23.7373 585.364 23.3183C585.789 22.8992 586.329 22.6158 586.915 22.5039C587.501 22.392 588.108 22.4566 588.657 22.6897C589.207 22.9227 589.675 23.3136 590.002 23.8128C590.329 24.3121 590.501 24.8973 590.495 25.4941V25.4941C590.488 26.2913 590.165 27.053 589.597 27.6126C589.029 28.1722 588.263 28.4843 587.466 28.4804V28.4804Z" fill="white"/>
</svg>
